<?xml version="1.0" standalone="no"?>
<!DOCTYPE svg PUBLIC "-//W3C//DTD SVG 20010904//EN"
        "http://www.w3.org/TR/2001/REC-SVG-20010904/DTD/svg10.dtd">
<svg version="1.0" xmlns="http://www.w3.org/2000/svg"
     width="512.000000pt" height="512.000000pt" viewBox="0 0 512.000000 512.000000"
     preserveAspectRatio="xMidYMid meet">

    <g transform="translate(0.000000,512.000000) scale(0.100000,-0.100000)"
       fill="#005A64" stroke="none">
        <path d="M240 5027 c-49 -16 -133 -102 -148 -153 -17 -59 -17 -1689 0 -1748
16 -55 99 -138 154 -154 24 -7 100 -12 177 -12 l137 0 2 -1048 3 -1048 37 -76
c45 -91 103 -147 196 -191 l67 -32 528 -3 527 -3 0 -159 0 -160 -240 0 -240 0
0 -80 0 -80 1040 0 1040 0 0 80 0 80 -240 0 -240 0 0 160 0 159 528 3 528 3
76 37 c91 45 147 103 191 196 l32 67 3 607 3 608 37 -16 c53 -22 141 -20 196
5 59 26 151 118 177 177 25 56 27 143 4 198 -31 74 -5 129 85 177 100 53 140
126 140 258 0 135 -44 212 -150 266 -79 40 -105 100 -75 171 23 54 22 141 -2
195 -28 61 -101 139 -163 173 -63 34 -150 39 -217 11 -72 -29 -128 -4 -168 75
-54 106 -131 150 -266 150 -132 0 -205 -40 -258 -140 -49 -92 -99 -115 -179
-84 -94 36 -198 13 -279 -60 l-40 -36 -222 0 -221 0 0 616 c0 448 -3 628 -12
656 -6 22 -31 62 -55 88 -77 86 17 80 -1297 79 -816 -1 -1171 -4 -1196 -12z
m2375 -172 c25 -24 25 -24 25 -240 l0 -215 -1200 0 -1200 0 0 215 c0 216 0
216 25 240 l24 25 1151 0 1151 0 24 -25z m25 -1150 l0 -536 -25 -24 -24 -25
-1151 0 -1151 0 -24 25 -25 24 0 536 0 535 1200 0 1200 0 0 -535z m1448 39
c12 -8 32 -38 43 -65 27 -61 81 -109 155 -138 69 -26 119 -27 190 -1 49 17 60
18 88 6 37 -16 91 -71 104 -106 7 -18 4 -40 -9 -80 -24 -73 -23 -127 2 -193
29 -75 69 -121 135 -153 72 -35 84 -54 84 -134 0 -80 -14 -102 -81 -131 -61
-27 -109 -81 -138 -155 -25 -67 -26 -120 -2 -194 22 -65 16 -88 -36 -142 -51
-52 -76 -59 -143 -37 -74 24 -127 23 -194 -2 -74 -29 -128 -77 -155 -138 -29
-67 -51 -81 -131 -81 -80 0 -102 14 -131 81 -27 61 -81 109 -155 138 -67 25
-120 26 -194 2 -40 -13 -62 -16 -80 -9 -35 13 -90 67 -106 104 -12 28 -11 39
7 90 26 73 21 139 -16 217 -29 62 -69 101 -132 129 -59 26 -73 50 -73 128 0
80 12 99 84 134 66 32 106 78 135 153 26 68 27 118 1 189 -17 49 -18 60 -6 88
16 37 71 91 106 104 18 7 40 4 80 -9 73 -24 127 -23 193 2 75 29 121 69 153
135 15 30 36 61 48 69 28 21 144 20 174 -1z m-918 -348 c0 -24 7 -60 15 -80
l15 -36 -200 0 -200 0 0 80 0 80 185 0 185 0 0 -44z m-146 -312 c-44 -49 -64
-111 -64 -204 0 -134 44 -211 150 -265 79 -40 104 -96 75 -168 -23 -56 -22
-143 2 -198 29 -64 106 -144 168 -174 64 -32 148 -36 209 -10 75 32 128 6 177
-85 34 -64 77 -104 137 -124 l37 -13 3 -242 2 -241 -1440 0 -1440 0 0 800 0
800 776 0 c566 0 787 3 816 12 48 14 121 76 138 118 l12 30 138 0 138 0 -34
-36z m-2142 -953 c3 -820 3 -830 24 -857 11 -15 33 -37 48 -48 27 -21 40 -21
754 -26 443 -3 714 -8 693 -14 -48 -12 -133 -99 -149 -152 -28 -94 -8 -169 63
-239 27 -28 66 -56 85 -62 53 -17 -1457 -18 -1514 -1 -55 16 -138 99 -154 154
-9 31 -12 289 -12 1058 l0 1016 80 0 80 0 2 -829z m3346 -1241 c-16 -58 -96
-141 -154 -158 -57 -17 -1567 -16 -1514 1 49 16 133 102 148 153 26 89 9 163
-56 235 -29 33 -57 53 -85 61 -35 11 77 14 685 18 714 5 727 5 754 26 69 51
68 48 74 346 l5 271 41 14 c22 7 56 28 75 46 l34 32 3 -500 c2 -372 0 -512
-10 -545z m-1693 125 c50 -49 15 -135 -55 -135 -19 0 -40 9 -55 25 -16 15 -25
36 -25 55 0 19 9 40 25 55 15 16 36 25 55 25 19 0 40 -9 55 -25z m345 -615 l0
-160 -400 0 -400 0 0 160 0 160 400 0 400 0 0 -160z"/>
        <path d="M400 4640 l0 -80 80 0 80 0 0 80 0 80 -80 0 -80 0 0 -80z"/>
        <path d="M720 4640 l0 -80 80 0 80 0 0 80 0 80 -80 0 -80 0 0 -80z"/>
        <path d="M1040 4640 l0 -80 80 0 80 0 0 80 0 80 -80 0 -80 0 0 -80z"/>
        <path d="M400 4000 l0 -80 160 0 160 0 0 80 0 80 -160 0 -160 0 0 -80z"/>
        <path d="M880 4000 l0 -80 400 0 400 0 0 80 0 80 -400 0 -400 0 0 -80z"/>
        <path d="M1840 3680 l0 -400 320 0 320 0 0 400 0 400 -320 0 -320 0 0 -400z
m480 0 l0 -240 -160 0 -160 0 0 240 0 240 160 0 160 0 0 -240z"/>
        <path d="M400 3680 l0 -80 640 0 640 0 0 80 0 80 -640 0 -640 0 0 -80z"/>
        <path d="M400 3360 l0 -80 240 0 240 0 0 80 0 80 -240 0 -240 0 0 -80z"/>
        <path d="M1040 3360 l0 -80 80 0 80 0 0 80 0 80 -80 0 -80 0 0 -80z"/>
        <path d="M1360 3360 l0 -80 160 0 160 0 0 80 0 80 -160 0 -160 0 0 -80z"/>
        <path d="M3885 3428 c-90 -17 -204 -80 -279 -154 -299 -299 -175 -793 234
-930 76 -26 244 -26 320 0 185 62 314 192 376 376 26 76 26 244 0 320 -53 156
-153 274 -289 339 -120 58 -234 73 -362 49z m279 -186 c91 -42 149 -100 194
-190 35 -72 37 -81 37 -172 0 -91 -2 -100 -37 -172 -45 -91 -103 -147 -196
-191 -61 -29 -76 -32 -162 -32 -86 0 -101 3 -162 32 -93 44 -151 100 -196 191
-35 72 -37 81 -37 171 0 87 3 102 32 163 40 85 97 147 172 186 78 42 122 52
213 48 61 -3 92 -11 142 -34z"/>
        <path d="M3920 3107 c-49 -16 -133 -102 -148 -153 -28 -94 -8 -169 63 -239 51
-52 102 -75 165 -75 63 0 114 23 165 75 98 97 101 222 8 325 -65 72 -158 97
-253 67z m135 -172 c16 -15 25 -36 25 -55 0 -19 -9 -40 -25 -55 -15 -16 -36
-25 -55 -25 -19 0 -40 9 -55 25 -16 15 -25 36 -25 55 0 19 9 40 25 55 15 16
36 25 55 25 19 0 40 -9 55 -25z"/>
        <path d="M1200 2720 l0 -80 800 0 800 0 0 80 0 80 -800 0 -800 0 0 -80z"/>
        <path d="M1200 2400 l0 -80 800 0 800 0 0 80 0 80 -800 0 -800 0 0 -80z"/>
        <path d="M1197 2162 c-26 -26 -47 -52 -47 -57 0 -5 57 -67 127 -137 l128 -128
-130 -130 -130 -130 58 -57 57 -58 187 188 188 187 -185 185 c-102 102 -190
185 -195 185 -6 0 -32 -22 -58 -48z"/>
        <path d="M1680 1600 l0 -80 320 0 320 0 0 80 0 80 -320 0 -320 0 0 -80z"/>
    </g>
</svg>
