<svg id="svg" xmlns="http://www.w3.org/2000/svg" xmlns:xlink="http://www.w3.org/1999/xlink" width="400" height="400"
     viewBox="0, 0, 400,400">
    <g id="svgg">
        <path id="path0"
              d="M122.796 92.899 C 78.325 109.999,42.511 124.197,41.065 125.300 C 33.384 131.159,33.293 145.377,40.900 151.116 C 49.410 157.537,199.735 235.378,204.337 235.747 C 210.866 236.271,207.879 237.853,275.303 198.173 C 307.912 178.982,334.718 163.281,334.874 163.281 C 335.029 163.281,335.156 173.652,335.156 186.328 C 335.156 199.004,334.854 209.375,334.485 209.375 C 334.116 209.375,332.132 210.856,330.075 212.666 C 321.282 220.406,320.047 232.879,327.181 241.886 L 330.088 245.555 328.036 247.752 C 323.280 252.843,323.068 254.009,322.815 276.460 C 322.518 302.776,320.091 300.000,343.394 300.000 C 367.474 300.000,365.005 302.717,364.697 276.555 C 364.430 253.917,364.149 252.464,359.128 247.779 L 357.166 245.948 360.154 241.999 C 368.086 231.520,365.323 216.133,354.492 210.460 L 352.344 209.335 352.344 181.206 L 352.344 153.077 355.118 150.641 C 362.703 143.981,362.582 132.218,354.861 125.735 C 349.773 121.464,212.608 63.216,206.641 62.793 C 202.037 62.467,200.538 63.005,122.796 92.899 M262.133 214.505 C 226.553 235.500,214.267 242.379,211.069 243.095 C 202.246 245.069,202.065 244.992,145.830 215.322 C 117.642 200.450,94.392 188.281,94.164 188.281 C 93.936 188.281,93.750 215.760,93.750 249.345 L 93.750 310.410 95.664 313.676 C 114.155 345.229,287.535 345.432,308.387 313.925 L 310.547 310.662 310.756 248.690 C 310.923 199.035,310.768 186.733,309.975 186.788 C 309.430 186.826,287.901 199.299,262.133 214.505 "
              stroke="none" fill="#005A64" fill-rule="evenodd"></path>
    </g>
</svg>