<svg id="svg" xmlns="http://www.w3.org/2000/svg" xmlns:xlink="http://www.w3.org/1999/xlink" width="400" height="400"
     viewBox="0, 0, 400,400">
    <g id="svgg">
        <path id="path0"
              d="M243.928 1.639 C 239.908 3.646,236.479 7.613,235.267 11.658 C 233.932 16.113,233.999 264.575,235.336 269.050 C 238.509 279.672,242.154 280.613,278.974 280.319 L 309.120 280.078 312.422 277.789 C 314.238 276.530,316.668 273.894,317.823 271.930 L 319.922 268.359 320.141 221.703 L 320.360 175.048 323.478 174.208 C 326.356 173.433,328.035 173.822,345.253 179.262 C 364.618 185.380,368.874 186.105,373.670 184.101 C 378.320 182.158,382.790 175.399,382.808 170.282 C 382.811 169.621,383.516 167.701,384.375 166.016 C 389.630 155.709,384.698 147.262,370.805 142.774 L 362.891 140.217 370.787 137.692 C 384.672 133.250,389.633 124.766,384.375 114.453 C 383.516 112.768,382.811 110.847,382.808 110.186 C 382.790 105.069,378.320 98.311,373.670 96.368 C 368.891 94.371,364.666 95.094,345.323 101.217 C 328.021 106.694,326.443 107.059,323.516 106.271 L 320.360 105.421 320.141 58.765 L 319.922 12.109 317.819 8.532 C 316.662 6.565,314.202 3.928,312.350 2.673 L 308.984 0.391 278.125 0.182 C 247.975 -0.022,247.189 0.012,243.928 1.639 M303.682 12.539 C 307.824 13.983,307.813 13.846,307.813 61.335 L 307.813 105.409 304.505 106.299 C 299.171 107.735,293.777 110.824,289.442 114.923 L 285.396 118.750 266.135 118.750 L 246.875 118.750 246.875 67.642 C 246.875 12.473,246.755 14.383,250.312 12.834 C 253.372 11.502,299.968 11.244,303.682 12.539 M34.168 50.069 C 26.867 51.789,19.846 57.469,16.388 64.453 L 14.453 68.359 14.246 168.123 L 14.039 267.886 15.761 269.490 C 17.461 271.074,20.554 271.551,23.012 270.608 C 26.658 269.209,26.562 271.953,26.562 168.942 L 26.563 72.181 28.818 68.625 C 30.317 66.261,32.233 64.507,34.533 63.394 L 37.993 61.719 128.798 61.719 L 219.602 61.719 221.520 59.801 C 222.729 58.592,223.438 56.991,223.438 55.469 C 223.438 53.947,222.729 52.345,221.520 51.136 L 219.602 49.219 128.356 49.297 C 78.170 49.340,35.786 49.688,34.168 50.069 M99.609 103.856 C 86.695 106.999,85.005 111.909,85.313 145.376 L 85.547 170.829 87.911 174.652 C 89.375 177.019,91.732 179.375,94.099 180.839 L 97.923 183.203 147.204 183.425 C 216.057 183.736,212.109 186.173,212.109 143.359 C 212.109 111.937,210.731 107.788,199.149 104.349 C 194.732 103.037,104.802 102.591,99.609 103.856 M369.245 108.762 C 369.568 109.285,369.894 111.187,369.970 112.991 C 370.052 114.932,370.810 117.255,371.829 118.686 C 374.798 122.855,374.149 123.399,361.325 127.488 C 348.310 131.638,347.656 131.760,347.656 130.052 C 347.656 128.598,344.173 121.602,341.955 118.602 C 339.939 115.876,338.923 116.487,353.125 111.891 C 366.058 107.707,368.321 107.268,369.245 108.762 M196.103 116.801 C 199.785 118.705,200.139 121.422,199.860 145.577 L 199.609 167.325 197.417 169.209 L 195.225 171.094 149.124 171.094 C 115.573 171.094,102.558 170.846,101.316 170.185 C 97.752 168.287,97.707 167.961,97.681 143.729 C 97.654 118.897,97.785 118.036,101.841 116.400 C 105.090 115.089,193.519 115.465,196.103 116.801 M323.200 119.520 C 328.063 121.669,333.104 127.115,335.054 132.329 C 343.811 155.734,313.493 173.771,296.961 154.991 C 281.180 137.062,301.311 109.848,323.200 119.520 M117.969 128.125 C 115.965 130.128,115.931 134.397,117.900 136.828 L 119.393 138.672 148.436 138.672 L 177.478 138.672 179.364 136.480 C 181.677 133.792,181.761 131.328,179.631 128.621 L 178.012 126.563 148.771 126.563 C 120.573 126.563,119.476 126.618,117.969 128.125 M279.297 140.234 L 279.297 149.219 263.086 149.219 L 246.875 149.219 246.875 140.234 L 246.875 131.250 263.086 131.250 L 279.297 131.250 279.297 140.234 M117.969 150.000 C 115.810 152.159,115.854 157.070,118.050 159.059 C 120.030 160.852,173.336 161.816,177.401 160.132 C 181.381 158.484,182.384 153.407,179.332 150.355 L 177.415 148.438 148.473 148.438 C 120.573 148.438,119.475 148.494,117.969 150.000 M361.328 153.003 C 374.140 157.103,374.780 157.639,371.829 161.783 C 370.749 163.300,370.052 165.538,369.957 167.794 C 369.717 173.491,369.131 173.526,353.973 168.748 C 346.631 166.434,340.625 164.305,340.625 164.016 C 340.625 163.728,341.281 162.654,342.082 161.629 C 344.080 159.074,347.656 151.880,347.656 150.417 C 347.656 148.712,348.297 148.833,361.328 153.003 M289.442 165.546 C 293.777 169.645,299.171 172.733,304.505 174.170 L 307.813 175.060 307.813 219.134 C 307.813 266.623,307.824 266.486,303.682 267.930 C 300.410 269.070,254.168 269.032,250.881 267.887 C 246.806 266.466,246.875 267.418,246.875 212.942 L 246.875 161.719 266.135 161.719 L 285.396 161.719 289.442 165.546 M15.625 286.719 C 13.155 289.189,13.193 376.523,15.667 383.136 C 17.678 388.510,22.806 394.283,28.243 397.295 L 32.422 399.609 144.141 399.609 L 255.859 399.609 261.996 396.679 C 272.738 391.550,280.683 381.327,282.750 369.974 C 284.512 360.294,283.857 294.295,281.975 291.902 C 279.825 289.169,275.257 289.029,272.822 291.621 C 271.171 293.378,271.149 293.824,270.928 330.897 L 270.703 368.396 268.125 373.630 C 264.208 381.585,258.148 385.997,249.128 387.460 C 241.980 388.620,43.676 388.584,38.258 387.422 C 34.215 386.555,29.784 383.451,27.900 380.166 C 27.201 378.948,26.851 366.669,26.563 333.329 L 26.172 288.142 24.328 286.649 C 21.896 284.681,17.628 284.715,15.625 286.719 "
              stroke="none" fill="#005A64" fill-rule="evenodd"></path>
    </g>
</svg>