<?xml version="1.0" encoding="utf-8"?>
<svg viewBox="0 0 500 500" xmlns="http://www.w3.org/2000/svg">
  <g id="SVGRepo_bgCarrier" stroke-width="0" transform="matrix(8.264461517333984, 0, 0, 8.183135986328125, 0.000039000005926936865, 0.000004000000444648322)"/>
  <g id="SVGRepo_tracerCarrier" stroke-linecap="round" stroke-linejoin="round" transform="matrix(8.264461517333984, 0, 0, 8.183135986328125, 0.000039000005926936865, 0.000004000000444648322)"/>
  <g id="SVGRepo_iconCarrier" transform="matrix(8.264461517333984, 0, 0, 8.183135986328125, 0.000039000005926936865, 0.000004000000444648322)">
    <g id="ICON">
      <path d="M 35.596 48.159 L 32.965 57.981 C 32.851 58.405 33.028 58.854 33.4 59.087 C 33.772 59.32 34.253 59.283 34.585 58.996 L 38.316 55.765 C 38.316 55.765 39.932 60.428 39.932 60.428 C 40.075 60.839 40.467 61.111 40.902 61.101 C 41.336 61.09 41.715 60.8 41.837 60.382 L 43.51 54.674 L 45.162 60.379 C 45.283 60.797 45.661 61.089 46.097 61.1 C 46.532 61.112 46.925 60.84 47.068 60.428 L 48.684 55.765 C 48.684 55.765 52.415 58.996 52.415 58.996 C 52.747 59.283 53.228 59.32 53.6 59.087 C 53.972 58.854 54.149 58.405 54.035 57.981 L 51.404 48.159 C 53.323 46.178 54.505 43.479 54.505 40.505 C 54.505 34.431 49.574 29.5 43.5 29.5 C 37.426 29.5 32.495 34.431 32.495 40.505 C 32.495 43.479 33.677 46.178 35.596 48.159 Z M 37.285 49.585 L 35.74 55.35 L 38.123 53.287 C 38.374 53.07 38.716 52.991 39.037 53.077 C 39.357 53.163 39.614 53.402 39.723 53.716 C 39.723 53.716 40.798 56.817 40.798 56.817 L 42.37 51.452 C 40.496 51.261 38.761 50.598 37.285 49.585 Z M 49.715 49.585 C 48.247 50.593 46.521 51.254 44.659 51.449 L 46.208 56.801 L 47.277 53.716 C 47.386 53.402 47.643 53.163 47.963 53.077 C 48.284 52.991 48.626 53.07 48.877 53.287 C 48.877 53.287 51.26 55.35 51.26 55.35 L 49.715 49.585 Z M 3 34 L 3 49 C 3 49.796 3.316 50.559 3.879 51.121 C 4.441 51.684 5.204 52 6 52 C 12.483 52 32.5 52 32.5 52 C 33.052 52 33.5 51.552 33.5 51 C 33.5 50.448 33.052 50 32.5 50 C 32.5 50 12.483 50 6 50 C 5.735 50 5.48 49.895 5.293 49.707 C 5.105 49.52 5 49.265 5 49 L 5 34 C 5 33.448 4.552 33 4 33 C 3.448 33 3 33.448 3 34 Z M 3 6 L 3 30 C 3 30.552 3.448 31 4 31 C 4.552 31 5 30.552 5 30 L 5 12 L 35 12 C 35.552 12 36 11.552 36 11 C 36 10.448 35.552 10 35 10 L 5 10 C 5 10 5 6 5 6 C 5 5.448 5.448 5 6 5 C 6 5 57.5 5 57.5 5 C 58.052 5 58.5 5.448 58.5 6 C 58.5 6 58.5 10 58.5 10 C 58.5 10 39 10 39 10 C 38.448 10 38 10.448 38 11 C 38 11.552 38.448 12 39 12 L 58.5 12 L 58.5 49 C 58.5 49.552 58.052 50 57.5 50 L 55 50 C 54.448 50 54 50.448 54 51 C 54 51.552 54.448 52 55 52 L 57.5 52 C 59.157 52 60.5 50.657 60.5 49 L 60.5 6 C 60.5 4.343 59.157 3 57.5 3 L 6 3 C 4.343 3 3 4.343 3 6 Z M 43.5 31.5 C 48.47 31.5 52.505 35.535 52.505 40.505 C 52.505 45.475 48.47 49.51 43.5 49.51 C 38.53 49.51 34.495 45.475 34.495 40.505 C 34.495 35.535 38.53 31.5 43.5 31.5 Z M 29 45 L 29 43 C 29 41.343 27.657 40 26 40 L 12 40 C 10.343 40 9 41.343 9 43 L 9 45 C 9 46.657 10.343 48 12 48 L 26 48 C 27.657 48 29 46.657 29 45 Z M 44.374 32.873 C 44.198 32.556 43.863 32.359 43.5 32.359 C 43.137 32.359 42.802 32.556 42.626 32.873 L 40.647 36.432 C 40.647 36.432 36.65 37.215 36.65 37.215 C 36.294 37.285 36.004 37.542 35.892 37.887 C 35.779 38.233 35.863 38.611 36.11 38.877 L 38.884 41.859 C 38.884 41.859 38.393 45.902 38.393 45.902 C 38.349 46.262 38.504 46.618 38.798 46.832 C 39.091 47.045 39.478 47.082 39.807 46.929 L 43.5 45.213 C 43.5 45.213 47.193 46.929 47.193 46.929 C 47.522 47.082 47.909 47.045 48.202 46.832 C 48.496 46.618 48.651 46.262 48.607 45.902 L 48.116 41.859 C 48.116 41.859 50.89 38.877 50.89 38.877 C 51.137 38.611 51.221 38.233 51.108 37.887 C 50.996 37.542 50.706 37.285 50.35 37.215 L 46.353 36.432 C 46.353 36.432 44.374 32.873 44.374 32.873 Z M 27 43 L 27 45 C 27 45.552 26.552 46 26 46 L 12 46 C 11.448 46 11 45.552 11 45 C 11 45 11 43 11 43 C 11 42.448 11.448 42 12 42 L 26 42 C 26.552 42 27 42.448 27 43 Z M 10 37 L 28.5 37 C 29.052 37 29.5 36.552 29.5 36 C 29.5 35.448 29.052 35 28.5 35 L 10 35 C 9.448 35 9 35.448 9 36 C 9 36.552 9.448 37 10 37 Z M 10 33 L 31 33 C 31.552 33 32 32.552 32 32 C 32 31.448 31.552 31 31 31 L 10 31 C 9.448 31 9 31.448 9 32 C 9 32.552 9.448 33 10 33 Z M 10 29 L 33 29 C 33.552 29 34 28.552 34 28 C 34 27.448 33.552 27 33 27 L 10 27 C 9.448 27 9 27.448 9 28 C 9 28.552 9.448 29 10 29 Z M 10 25 L 53 25 C 53.552 25 54 24.552 54 24 C 54 23.448 53.552 23 53 23 L 10 23 C 9.448 23 9 23.448 9 24 C 9 24.552 9.448 25 10 25 Z M 10 21 L 53 21 C 53.552 21 54 20.552 54 20 C 54 19.448 53.552 19 53 19 L 10 19 C 9.448 19 9 19.448 9 20 C 9 20.552 9.448 21 10 21 Z M 19 17 L 44.5 17 C 45.052 17 45.5 16.552 45.5 16 C 45.5 15.448 45.052 15 44.5 15 L 19 15 C 18.448 15 18 15.448 18 16 C 18 16.552 18.448 17 19 17 Z M 8 6.5 C 8.552 6.5 9 6.948 9 7.5 C 9 8.052 8.552 8.5 8 8.5 C 7.448 8.5 7 8.052 7 7.5 C 7 6.948 7.448 6.5 8 6.5 Z M 12 6.5 C 12.552 6.5 13 6.948 13 7.5 C 13 8.052 12.552 8.5 12 8.5 C 11.448 8.5 11 8.052 11 7.5 C 11 6.948 11.448 6.5 12 6.5 Z M 16 6.5 C 16.552 6.5 17 6.948 17 7.5 C 17 8.052 16.552 8.5 16 8.5 C 15.448 8.5 15 8.052 15 7.5 C 15 6.948 15.448 6.5 16 6.5 Z" style="fill: rgb(0, 90, 100);"/>
    </g>
  </g>
</svg>