<svg id="svg" version="1.1" xmlns="http://www.w3.org/2000/svg" xmlns:xlink="http://www.w3.org/1999/xlink" width="400"
     height="400" viewBox="0, 0, 400,400">
    <g id="svgg">
        <path id="path0"
              d="M26.563 120.313 C 25.021 121.854,25.000 122.917,25.000 200.000 C 25.000 277.083,25.021 278.146,26.563 279.688 C 28.098 281.223,29.167 281.250,87.500 281.250 C 145.833 281.250,146.902 281.223,148.438 279.688 C 149.955 278.170,150.000 277.083,150.000 242.188 L 150.000 206.250 168.963 206.250 L 187.926 206.250 189.443 209.067 C 196.374 221.936,216.126 221.936,223.057 209.067 L 224.574 206.250 243.875 206.250 C 262.827 206.250,263.185 206.280,263.699 207.899 C 264.934 211.790,273.293 218.750,276.731 218.750 C 277.288 218.750,288.989 230.000,302.734 243.750 L 327.725 268.750 332.951 268.750 C 337.581 268.750,338.236 268.938,338.699 270.399 C 344.573 288.905,375.277 282.274,375.277 262.500 C 375.277 242.726,344.573 236.095,338.699 254.601 C 337.480 258.441,335.132 256.627,314.173 235.657 L 293.591 215.065 296.405 211.379 C 297.953 209.352,299.219 207.368,299.219 206.971 C 299.219 205.202,338.134 206.116,338.699 207.899 C 344.573 226.405,375.277 219.774,375.277 200.000 C 375.277 180.226,344.573 173.595,338.699 192.101 C 338.185 193.720,337.827 193.750,318.875 193.750 L 299.574 193.750 298.057 190.933 C 291.126 178.064,271.374 178.064,264.443 190.933 L 262.926 193.750 243.572 193.750 C 232.261 193.750,224.219 193.450,224.219 193.029 C 224.219 192.632,222.953 190.648,221.405 188.621 L 218.591 184.935 239.173 164.343 L 259.755 143.750 298.965 143.750 C 338.174 143.750,338.176 143.750,338.699 145.399 C 344.573 163.905,375.277 157.274,375.277 137.500 C 375.277 117.726,344.573 111.095,338.699 129.601 L 338.176 131.250 295.483 131.250 L 252.790 131.250 227.762 156.164 C 208.999 174.842,202.030 181.301,199.918 181.968 C 196.312 183.109,191.387 187.323,189.443 190.933 L 187.926 193.750 168.963 193.750 L 150.000 193.750 150.000 176.384 L 150.000 159.018 129.866 138.884 L 109.732 118.750 68.929 118.750 C 29.167 118.750,28.085 118.790,26.563 120.313 M100.000 148.438 C 100.000 170.835,97.915 168.750,120.313 168.750 L 137.500 168.750 137.500 218.750 L 137.500 268.750 87.500 268.750 L 37.500 268.750 37.500 200.000 L 37.500 131.250 68.750 131.250 L 100.000 131.250 100.000 148.438 M360.156 133.594 C 361.024 134.462,361.719 136.198,361.719 137.500 C 361.719 138.802,361.024 140.538,360.156 141.406 C 359.288 142.274,357.552 142.969,356.250 142.969 C 354.948 142.969,353.212 142.274,352.344 141.406 C 351.476 140.538,350.781 138.802,350.781 137.500 C 350.781 136.198,351.476 134.462,352.344 133.594 C 353.212 132.726,354.948 132.031,356.250 132.031 C 357.552 132.031,359.288 132.726,360.156 133.594 M120.313 148.828 L 127.704 156.250 120.102 156.250 L 112.500 156.250 112.500 148.828 C 112.500 144.746,112.595 141.406,112.711 141.406 C 112.827 141.406,116.247 144.746,120.313 148.828 M68.157 189.058 C 64.181 191.483,62.506 194.904,62.503 200.611 C 62.498 208.264,61.160 210.602,55.913 212.128 C 47.407 214.600,47.407 222.900,55.913 225.372 C 61.160 226.898,62.498 229.236,62.503 236.889 C 62.509 247.044,73.616 254.509,79.688 248.438 C 83.013 245.112,80.838 237.500,76.563 237.500 C 75.142 237.500,75.000 236.979,75.000 231.773 C 75.000 227.302,74.595 225.246,73.153 222.398 L 71.306 218.750 73.153 215.102 C 74.595 212.254,75.000 210.198,75.000 205.727 C 75.000 200.521,75.142 200.000,76.563 200.000 C 79.173 200.000,81.250 197.230,81.250 193.750 C 81.250 187.758,74.347 185.284,68.157 189.058 M95.313 189.063 C 91.987 192.388,94.162 200.000,98.438 200.000 C 99.858 200.000,100.000 200.521,100.000 205.743 C 100.000 210.316,100.385 212.210,101.888 215.037 L 103.776 218.588 101.888 222.317 C 100.402 225.251,100.000 227.267,100.000 231.773 C 100.000 236.979,99.858 237.500,98.438 237.500 C 95.827 237.500,93.750 240.270,93.750 243.750 C 93.750 248.132,95.795 250.001,100.586 249.997 C 108.057 249.991,112.492 245.111,112.497 236.889 C 112.502 229.236,113.840 226.898,119.087 225.372 C 123.778 224.009,125.000 222.640,125.000 218.750 C 125.000 214.860,123.778 213.491,119.087 212.128 C 113.840 210.602,112.502 208.264,112.497 200.611 C 112.491 190.456,101.384 182.991,95.313 189.063 M210.156 196.094 C 211.024 196.962,211.719 198.698,211.719 200.000 C 211.719 201.302,211.024 203.038,210.156 203.906 C 209.288 204.774,207.552 205.469,206.250 205.469 C 204.948 205.469,203.212 204.774,202.344 203.906 C 201.476 203.038,200.781 201.302,200.781 200.000 C 200.781 198.698,201.476 196.962,202.344 196.094 C 203.212 195.226,204.948 194.531,206.250 194.531 C 207.552 194.531,209.288 195.226,210.156 196.094 M285.156 196.094 C 286.024 196.962,286.719 198.698,286.719 200.000 C 286.719 201.302,286.024 203.038,285.156 203.906 C 284.288 204.774,282.552 205.469,281.250 205.469 C 279.948 205.469,278.212 204.774,277.344 203.906 C 276.476 203.038,275.781 201.302,275.781 200.000 C 275.781 198.698,276.476 196.962,277.344 196.094 C 278.212 195.226,279.948 194.531,281.250 194.531 C 282.552 194.531,284.288 195.226,285.156 196.094 M360.156 196.094 C 361.024 196.962,361.719 198.698,361.719 200.000 C 361.719 201.302,361.024 203.038,360.156 203.906 C 359.288 204.774,357.552 205.469,356.250 205.469 C 354.948 205.469,353.212 204.774,352.344 203.906 C 351.476 203.038,350.781 201.302,350.781 200.000 C 350.781 198.698,351.476 196.962,352.344 196.094 C 353.212 195.226,354.948 194.531,356.250 194.531 C 357.552 194.531,359.288 195.226,360.156 196.094 M360.156 258.594 C 361.024 259.462,361.719 261.198,361.719 262.500 C 361.719 263.802,361.024 265.538,360.156 266.406 C 359.288 267.274,357.552 267.969,356.250 267.969 C 354.948 267.969,353.212 267.274,352.344 266.406 C 351.476 265.538,350.781 263.802,350.781 262.500 C 350.781 261.198,351.476 259.462,352.344 258.594 C 353.212 257.726,354.948 257.031,356.250 257.031 C 357.552 257.031,359.288 257.726,360.156 258.594 "
              stroke="none" fill="#005A64" fill-rule="evenodd"></path>
    </g>
</svg>