<svg id="svg" xmlns="http://www.w3.org/2000/svg" xmlns:xlink="http://www.w3.org/1999/xlink" width="400" height="400"
     viewBox="0, 0, 400,400">
    <g id="svgg">
        <path id="path0"
              d="M20.569 76.507 C 12.479 79.427,5.777 85.586,2.163 93.422 L 0.391 97.266 0.391 200.000 L 0.391 302.734 2.163 306.578 C 5.876 314.629,12.600 320.692,20.940 323.509 C 25.295 324.979,29.427 325.009,201.565 324.811 L 377.734 324.609 382.422 322.314 C 388.400 319.386,394.376 313.408,397.311 307.422 L 399.609 302.734 399.609 200.000 L 399.609 97.266 397.498 92.759 C 394.801 87.004,388.419 80.623,382.422 77.686 L 377.734 75.391 201.172 75.220 C 30.560 75.055,24.473 75.098,20.569 76.507 M376.985 89.349 C 383.907 92.572,387.008 97.533,387.926 106.850 L 388.483 112.500 377.784 112.500 C 366.046 112.500,364.625 112.887,363.394 116.419 C 361.133 122.904,364.683 125.000,377.931 125.000 L 388.327 125.000 388.109 211.523 C 387.914 288.840,387.758 298.338,386.642 300.781 C 384.630 305.185,381.206 308.685,376.985 310.651 L 373.047 312.485 200.000 312.485 L 26.953 312.485 23.015 310.651 C 18.794 308.685,15.370 305.185,13.358 300.781 C 12.242 298.338,12.086 288.840,11.891 211.523 L 11.673 125.000 178.778 125.000 L 345.883 125.000 347.942 123.381 C 350.568 121.315,350.827 116.452,348.437 114.063 C 346.885 112.510,345.833 112.500,179.196 112.500 L 11.517 112.500 12.074 106.850 C 12.992 97.533,16.093 92.572,23.015 89.349 L 26.953 87.515 200.000 87.515 L 373.047 87.515 376.985 89.349 M49.326 151.056 C 38.541 155.014,37.500 158.409,37.500 189.643 L 37.500 215.512 39.558 217.131 C 43.269 220.050,47.669 218.953,49.137 214.744 C 49.691 213.153,50.000 204.054,50.000 189.301 L 50.000 166.335 51.918 164.418 L 53.835 162.500 93.519 162.525 C 135.377 162.551,134.636 162.488,136.591 166.160 C 137.954 168.718,137.888 247.196,136.523 246.654 C 135.986 246.440,132.006 244.848,127.677 243.116 C 114.038 237.657,110.423 237.760,101.057 243.875 C 93.006 249.131,93.864 249.089,87.128 244.544 C 77.085 237.767,73.381 237.601,58.984 243.283 L 50.391 246.675 49.918 241.111 C 49.124 231.758,45.071 228.533,39.558 232.869 L 37.500 234.488 37.517 254.158 C 37.547 288.615,35.634 287.489,94.183 287.496 L 135.631 287.500 139.712 285.466 C 150.132 280.274,150.000 281.131,150.000 218.768 C 150.000 156.738,150.119 157.504,139.612 151.759 C 136.377 149.990,53.979 149.349,49.326 151.056 M214.223 151.449 C 208.706 153.396,205.091 156.425,200.391 163.041 L 196.484 168.538 188.963 168.863 C 175.921 169.427,169.619 175.276,168.913 187.474 C 168.240 199.088,170.513 204.948,177.440 209.455 C 181.636 212.186,181.564 212.114,184.295 216.310 C 191.834 227.895,208.546 227.766,215.941 216.066 L 218.195 212.500 228.629 212.500 C 237.022 212.500,239.063 212.713,239.063 213.587 C 239.063 214.185,240.655 216.446,242.601 218.610 C 251.093 228.055,265.850 226.739,272.240 215.967 C 273.813 213.317,275.817 211.313,278.467 209.740 C 295.308 199.749,288.423 168.757,269.361 168.749 C 266.218 168.747,265.875 168.523,263.691 165.038 C 259.979 159.115,254.955 154.220,250.558 152.241 C 244.809 149.653,220.792 149.130,214.223 151.449 M246.625 164.509 C 247.837 165.399,250.856 169.090,253.335 172.712 C 259.043 181.053,259.331 181.250,265.810 181.250 C 273.320 181.250,275.005 182.929,274.988 190.394 C 274.978 195.061,274.090 198.709,273.227 197.634 C 273.064 197.431,272.143 196.124,271.180 194.730 C 267.087 188.802,257.753 186.097,250.130 188.629 C 246.066 189.979,239.063 196.486,239.063 198.913 C 239.063 199.787,237.022 200.000,228.629 200.000 L 218.195 200.000 215.941 196.434 C 208.906 185.304,190.919 184.685,184.616 195.356 C 182.544 198.863,181.250 196.993,181.250 190.494 C 181.250 182.265,182.569 181.250,193.260 181.250 C 203.647 181.250,203.180 181.486,208.543 173.531 C 215.984 162.491,215.989 162.489,232.172 162.718 C 243.175 162.873,244.647 163.055,246.625 164.509 M302.579 169.923 C 299.261 172.247,299.898 179.363,303.551 180.765 C 307.463 182.266,358.382 181.251,360.442 179.631 C 363.191 177.468,363.315 172.913,360.692 170.449 C 358.318 168.219,305.692 167.742,302.579 169.923 M86.328 182.343 C 60.063 190.650,64.358 228.854,91.805 231.057 C 106.414 232.230,118.339 221.081,118.339 206.250 C 118.339 189.384,102.193 177.325,86.328 182.343 M99.250 195.549 C 108.226 200.296,108.086 212.664,99.002 217.298 C 95.184 219.246,89.983 218.954,86.825 216.616 C 74.112 207.201,85.327 188.186,99.250 195.549 M302.253 195.229 C 300.861 196.356,300.426 197.492,300.426 200.000 C 300.426 206.323,300.068 206.250,331.231 206.250 C 357.517 206.250,358.449 206.198,360.442 204.631 C 363.350 202.343,363.350 197.657,360.442 195.369 C 357.377 192.959,305.212 192.833,302.253 195.229 M202.645 200.883 C 206.551 202.663,207.089 207.805,203.698 210.964 C 199.215 215.141,192.124 209.719,194.516 203.943 C 195.927 200.537,199.190 199.309,202.645 200.883 M260.582 201.918 C 264.295 205.630,261.720 212.500,256.616 212.500 C 254.111 212.500,250.000 208.616,250.000 206.250 C 250.000 201.386,257.131 198.467,260.582 201.918 M170.668 239.418 C 164.789 245.296,169.493 250.000,181.250 250.000 C 191.134 250.000,193.750 248.692,193.750 243.750 C 193.750 237.472,175.954 234.132,170.668 239.418 M208.168 239.418 C 206.959 240.626,206.250 242.228,206.250 243.750 C 206.250 245.272,206.959 246.874,208.168 248.082 L 210.085 250.000 284.594 250.000 L 359.103 250.000 360.801 248.192 C 363.279 245.555,363.107 241.216,360.442 239.119 C 358.392 237.507,358.066 237.500,284.234 237.500 L 210.085 237.500 208.168 239.418 M83.148 257.031 C 93.477 263.838,93.707 263.843,103.263 257.453 C 113.377 250.689,112.540 250.741,125.781 256.075 L 137.109 260.638 137.353 264.447 C 138.067 275.585,140.486 275.000,93.708 275.000 C 46.782 275.000,49.996 275.651,50.005 266.154 L 50.011 260.547 61.138 256.097 C 74.915 250.587,73.265 250.517,83.148 257.031 M170.734 264.351 C 164.772 270.313,169.269 275.000,180.952 275.000 C 192.786 275.000,197.269 270.930,192.258 264.735 C 189.837 261.742,173.632 261.453,170.734 264.351 M209.621 263.287 C 205.921 264.778,205.138 270.053,208.168 273.082 L 210.085 275.000 259.594 275.000 L 309.103 275.000 310.801 273.192 C 313.279 270.555,313.107 266.216,310.442 264.119 C 308.226 262.376,213.816 261.597,209.621 263.287 "
              stroke="none" fill="#005A64" fill-rule="evenodd"></path>
    </g>
</svg>