<?xml version="1.0" standalone="no"?>
<!DOCTYPE svg PUBLIC "-//W3C//DTD SVG 20010904//EN"
        "http://www.w3.org/TR/2001/REC-SVG-20010904/DTD/svg10.dtd">
<svg version="1.0" xmlns="http://www.w3.org/2000/svg"
     width="512.000000pt" height="512.000000pt" viewBox="0 0 512.000000 512.000000"
     preserveAspectRatio="xMidYMid meet">

    <g transform="translate(0.000000,512.000000) scale(0.100000,-0.100000)"
       fill="#005A64" stroke="none">
        <path d="M3506 4949 c-69 -14 -181 -68 -243 -117 -109 -87 -191 -244 -200
-384 l-6 -78 -42 -24 c-56 -34 -112 -97 -144 -165 -22 -47 -26 -70 -26 -141 0
-71 4 -94 27 -143 31 -65 126 -166 138 -146 5 6 39 24 76 38 56 21 72 33 86
60 16 33 16 34 -17 106 l-33 73 147 146 147 147 70 -31 c63 -29 72 -30 106
-19 33 11 39 18 63 85 l27 74 208 0 208 0 28 -71 c23 -58 34 -74 61 -87 31
-15 35 -14 105 17 l72 32 147 -147 147 -147 -25 -56 c-51 -111 -41 -143 60
-181 38 -14 72 -31 76 -38 13 -21 93 59 132 130 32 59 34 69 34 158 0 84 -3
102 -28 152 -34 68 -118 149 -182 173 -34 13 -45 23 -45 39 -1 41 -48 155 -90
215 -116 165 -336 247 -528 197 l-53 -13 -41 34 c-87 72 -197 113 -323 118
-49 2 -112 0 -139 -6z m166 -149 c25 -26 29 -36 24 -63 -8 -43 -35 -63 -95
-70 -139 -17 -230 -107 -250 -249 -6 -45 -14 -66 -31 -80 -54 -44 -130 -3
-130 69 0 50 24 142 51 194 49 96 158 182 268 211 99 25 127 23 163 -12z"/>
        <path d="M1526 4519 l-26 -20 0 -221 0 -220 -44 -39 c-53 -47 -70 -91 -64
-165 8 -97 87 -166 188 -166 122 1 212 115 181 230 -14 53 -52 108 -81 117
-19 6 -20 15 -20 176 l0 169 620 0 620 0 0 80 0 80 -674 0 c-666 0 -674 0
-700 -21z"/>
        <path d="M3770 4211 c-17 -47 -27 -61 -48 -66 -15 -3 -56 -20 -92 -36 l-66
-30 -54 25 -55 26 -69 -69 -69 -69 23 -56 23 -56 -26 -58 c-13 -31 -30 -73
-36 -93 -10 -31 -18 -38 -69 -56 l-57 -20 -3 -97 -3 -96 48 -20 c68 -28 78
-35 81 -56 2 -10 18 -50 34 -87 l31 -68 -21 -52 c-12 -29 -22 -57 -22 -62 0
-6 29 -39 64 -74 63 -62 64 -63 97 -52 19 7 45 18 59 25 22 13 30 12 70 -9 25
-12 65 -29 89 -36 40 -12 46 -18 72 -76 l28 -63 94 0 94 0 24 61 c22 56 28 63
64 74 22 6 62 23 89 37 l49 25 59 -25 59 -26 69 69 68 68 -25 57 -25 58 30 64
c16 34 32 75 36 90 5 21 18 31 66 50 l61 23 -3 99 -3 100 -57 20 c-44 16 -58
26 -63 46 -3 14 -20 55 -37 92 l-30 66 26 58 27 58 -69 69 -68 68 -62 -27 -61
-26 -33 20 c-18 11 -58 28 -89 37 -55 17 -57 19 -76 74 l-20 56 -100 3 -100 3
-23 -60z m261 -350 c74 -35 125 -85 161 -159 30 -60 33 -76 33 -152 0 -101
-20 -154 -86 -225 -167 -181 -452 -132 -557 94 -38 80 -37 192 0 272 40 88
121 158 218 190 47 16 181 4 231 -20z"/>
        <path d="M356 3355 c-54 -19 -106 -63 -141 -120 l-30 -48 0 -1016 c0 -985 1
-1017 19 -1055 25 -50 75 -100 129 -128 42 -23 45 -23 550 -26 l507 -3 0 -214
0 -214 -247 -3 c-233 -3 -250 -4 -289 -25 -82 -44 -114 -106 -114 -221 0 -61
11 -99 34 -114 6 -4 533 -8 1172 -8 1135 0 1161 0 1178 19 15 17 17 36 14 124
-3 95 -5 107 -30 139 -15 20 -49 47 -75 59 -46 23 -59 24 -290 27 l-243 3 0
215 0 214 483 0 c562 0 556 -1 642 83 89 87 85 47 85 893 0 614 -2 733 -14
737 -7 3 -26 37 -41 77 -23 61 -32 73 -62 85 -32 13 -38 13 -74 -5 l-39 -20 0
-695 0 -695 -1540 0 -1540 0 0 845 c0 832 0 845 20 865 20 20 33 20 1378 20
l1359 0 15 38 c12 31 12 42 2 68 -11 26 -26 37 -85 60 -39 15 -73 34 -76 41
-8 20 -2601 18 -2657 -2z"/>
        <path d="M2134 2926 c-49 -21 -61 -84 -24 -124 l21 -22 548 0 548 0 21 23 c40
42 24 105 -32 127 -44 16 -1043 13 -1082 -4z"/>
        <path d="M1162 2893 c-5 -10 -15 -34 -21 -54 -10 -30 -18 -38 -54 -49 -23 -7
-59 -21 -79 -31 -36 -18 -37 -18 -88 3 l-52 21 -59 -59 -60 -60 21 -48 22 -48
-26 -61 c-14 -34 -27 -71 -30 -82 -4 -13 -23 -26 -56 -38 l-50 -18 0 -87 0
-87 49 -18 c34 -12 52 -24 56 -40 4 -12 18 -48 32 -79 l26 -58 -22 -52 -22
-52 59 -58 58 -59 52 22 52 22 58 -26 c31 -14 67 -28 79 -31 14 -5 27 -23 39
-56 l18 -50 87 0 87 0 18 50 c12 33 25 52 38 55 12 4 50 18 84 32 l64 26 46
-22 45 -22 60 59 60 60 -22 51 c-21 51 -21 51 -2 88 10 21 24 57 31 80 11 37
18 43 64 60 l51 18 3 87 3 86 -51 17 c-28 9 -54 24 -57 34 -3 9 -19 45 -35 81
l-29 65 22 48 23 48 -62 61 -61 62 -49 -23 c-47 -22 -51 -23 -78 -7 -16 9 -51
25 -79 35 -46 17 -52 23 -69 70 l-19 51 -83 0 c-69 0 -85 -3 -92 -17z m199
-337 c127 -54 206 -196 180 -324 -39 -196 -243 -299 -419 -211 -246 123 -203
481 65 549 47 11 129 5 174 -14z"/>
        <path d="M4130 2364 l0 -386 -44 -42 c-79 -78 -83 -185 -10 -266 43 -47 89
-64 160 -58 97 8 164 84 164 187 0 65 -29 123 -77 152 l-33 21 0 389 0 389
-80 0 -80 0 0 -386z"/>
        <path d="M2115 2625 c-35 -34 -34 -86 1 -114 26 -21 36 -21 566 -21 l539 0 24
25 c16 15 25 36 25 55 0 19 -9 40 -25 55 l-24 25 -541 0 -541 0 -24 -25z"/>
        <path d="M2112 2337 c-27 -29 -28 -77 -3 -108 l19 -24 552 0 552 0 19 24 c28
35 25 85 -7 110 -26 21 -36 21 -569 21 l-542 0 -21 -23z"/>
        <path d="M2134 2066 c-50 -22 -61 -87 -21 -124 l23 -22 545 0 546 0 21 23 c40
42 24 105 -32 127 -44 16 -1043 13 -1082 -4z"/>
        <path d="M2115 1765 c-35 -34 -34 -86 1 -114 26 -21 36 -21 566 -21 l539 0 24
25 c16 15 25 36 25 55 0 19 -9 40 -25 55 l-24 25 -541 0 -541 0 -24 -25z"/>
    </g>
</svg>
