<svg id="svg" xmlns="http://www.w3.org/2000/svg" xmlns:xlink="http://www.w3.org/1999/xlink" width="400" height="400"
     viewBox="0, 0, 400,400">
    <g id="svgg">
        <path id="path0"
              d="M17.969 17.969 C 15.563 20.375,15.495 301.045,17.900 304.015 L 19.393 305.859 139.579 306.090 C 225.203 306.254,260.618 306.073,262.731 305.462 C 266.116 304.482,267.556 301.892,266.751 298.229 C 265.716 293.517,272.062 293.750,144.556 293.750 L 28.125 293.750 28.125 160.938 L 28.125 28.125 200.000 28.125 L 371.875 28.125 371.875 109.766 C 371.875 201.836,371.370 194.531,377.734 194.531 C 384.111 194.531,383.594 202.393,383.594 105.469 C 383.594 20.573,383.575 19.512,382.031 17.969 C 379.563 15.501,20.437 15.501,17.969 17.969 M86.184 39.064 C 83.915 39.983,82.813 42.212,82.813 45.878 C 82.813 64.333,64.207 82.812,45.626 82.813 C 43.575 82.813,41.675 83.368,40.516 84.306 L 38.672 85.799 38.465 160.358 L 38.258 234.916 39.889 236.989 C 41.036 238.447,42.256 239.067,44.002 239.076 C 63.934 239.185,82.812 257.258,82.813 276.231 C 82.813 278.332,83.384 280.203,84.432 281.535 L 86.051 283.594 172.387 283.594 C 219.873 283.594,258.604 283.330,258.458 283.008 C 258.312 282.686,257.093 280.313,255.750 277.734 C 223.482 215.785,291.240 146.778,354.346 177.323 C 357.921 179.053,361.050 180.469,361.300 180.469 C 361.550 180.469,361.658 159.168,361.541 133.134 L 361.328 85.799 359.484 84.306 C 358.326 83.368,356.425 82.813,354.374 82.813 C 335.596 82.813,317.187 64.404,317.188 45.626 C 317.188 43.575,316.632 41.675,315.694 40.516 L 314.201 38.672 201.046 38.522 C 136.775 38.437,87.153 38.671,86.184 39.064 M278.522 74.113 C 290.798 79.690,291.453 96.504,279.653 103.125 L 276.172 105.078 200.000 105.078 L 123.828 105.078 120.347 103.125 C 108.296 96.363,109.183 79.399,121.875 73.902 C 126.472 71.911,274.113 72.110,278.522 74.113 M123.793 84.730 C 121.425 87.098,121.266 90.797,123.438 92.969 C 124.978 94.510,126.042 94.531,200.000 94.531 C 273.958 94.531,275.022 94.510,276.563 92.969 C 278.734 90.797,278.575 87.098,276.207 84.730 L 274.290 82.813 200.000 82.813 L 125.710 82.813 123.793 84.730 M247.482 118.404 C 248.695 119.253,249.219 120.417,249.219 122.266 C 249.219 127.524,250.965 127.344,200.000 127.344 C 149.035 127.344,150.781 127.524,150.781 122.266 C 150.781 117.007,149.035 117.188,200.000 117.188 C 240.139 117.188,245.959 117.337,247.482 118.404 M307.385 139.830 C 311.757 141.492,311.380 147.586,306.807 149.180 C 303.524 150.324,96.476 150.324,93.193 149.180 C 88.761 147.635,88.223 141.539,92.371 139.872 C 94.856 138.874,304.763 138.833,307.385 139.830 M214.787 163.777 C 216.885 166.444,216.828 167.618,214.489 169.957 L 212.571 171.875 152.734 171.875 L 92.898 171.875 90.980 169.957 C 88.641 167.618,88.584 166.444,90.682 163.777 L 92.301 161.719 152.734 161.719 L 213.168 161.719 214.787 163.777 M310.938 183.971 C 265.182 192.762,244.950 248.545,274.805 283.596 L 277.344 286.577 277.344 333.027 C 277.344 394.899,275.506 392.493,304.083 368.026 C 321.849 352.814,322.301 352.489,323.828 353.847 C 344.216 371.983,358.833 383.594,361.280 383.594 C 367.416 383.594,367.188 385.548,367.188 333.139 L 367.188 286.801 371.224 281.487 C 404.831 237.238,365.427 173.501,310.938 183.971 M334.703 196.597 C 371.392 205.885,383.971 252.140,357.105 278.973 C 329.257 306.786,283.831 293.847,274.090 255.327 C 265.181 220.100,298.814 187.512,334.703 196.597 M310.895 206.942 C 296.475 211.556,285.918 223.557,283.524 238.058 C 282.100 246.678,283.622 250.000,288.997 250.000 C 292.967 250.000,294.117 248.436,295.216 241.541 C 297.378 227.978,306.672 218.892,320.029 217.284 C 325.897 216.578,328.125 214.807,328.125 210.851 C 328.125 205.523,320.637 203.824,310.895 206.942 M175.781 207.813 C 177.962 209.993,177.759 212.841,175.285 214.787 C 172.120 217.277,104.829 217.329,102.344 214.844 C 100.446 212.946,100.320 209.617,102.074 207.679 C 104.177 205.355,173.450 205.481,175.781 207.813 M152.971 234.961 C 155.421 237.080,155.718 239.316,153.863 241.674 L 152.230 243.750 139.006 243.750 C 124.514 243.750,122.656 243.180,122.656 238.729 C 122.656 233.743,147.929 230.602,152.971 234.961 M352.000 240.039 C 350.430 241.423,349.849 242.938,349.267 247.165 C 347.434 260.491,337.721 270.097,324.602 271.557 C 318.885 272.193,316.406 274.103,316.406 277.871 C 316.406 287.882,337.736 284.262,349.813 272.201 C 360.325 261.701,365.346 241.778,358.166 239.048 C 355.212 237.925,354.216 238.085,352.000 240.039 "
              stroke="none" fill="#005A64" fill-rule="evenodd"></path>
    </g>
</svg>