<svg id="svg" version="1.1" xmlns="http://www.w3.org/2000/svg" xmlns:xlink="http://www.w3.org/1999/xlink" width="400"
     height="400" viewBox="0, 0, 400,400">
    <g id="svgg">
        <path id="path0"
              d="M105.755 23.260 C 102.289 26.067,102.344 24.859,102.344 98.764 L 102.344 169.507 104.623 172.058 L 106.903 174.609 200.000 174.609 L 293.097 174.609 295.377 172.058 L 297.656 169.507 297.656 98.764 C 297.656 24.859,297.711 26.067,294.245 23.260 C 292.687 21.998,286.552 21.910,200.000 21.910 C 113.448 21.910,107.313 21.998,105.755 23.260 M216.909 48.933 C 219.503 50.165,221.875 53.409,221.875 55.726 C 221.875 60.029,193.458 144.315,191.341 146.289 C 187.077 150.266,179.781 147.948,178.522 142.216 C 178.056 140.095,203.301 60.008,206.767 52.610 C 208.723 48.436,212.769 46.969,216.909 48.933 M157.196 68.670 C 162.338 73.264,161.361 75.722,149.787 87.322 C 144.318 92.803,139.844 97.617,139.844 98.021 C 139.844 98.424,144.210 103.167,149.546 108.560 C 161.715 120.858,163.012 125.671,155.169 129.411 C 150.619 131.580,149.067 130.583,134.542 116.153 C 115.713 97.448,115.686 99.462,135.038 80.217 C 150.771 64.572,151.933 63.967,157.196 68.670 M264.962 80.217 C 284.314 99.462,284.287 97.448,265.458 116.153 C 250.933 130.583,249.381 131.580,244.831 129.411 C 236.988 125.671,238.285 120.858,250.454 108.560 C 255.790 103.167,260.156 98.424,260.156 98.021 C 260.156 97.617,255.682 92.803,250.213 87.322 C 238.639 75.722,237.662 73.264,242.804 68.670 C 248.067 63.967,249.229 64.572,264.962 80.217 M20.130 83.530 L 17.578 85.809 17.375 198.373 L 17.172 310.938 200.000 310.938 L 382.828 310.937 382.625 198.373 L 382.422 85.809 379.870 83.530 L 377.319 81.250 345.691 81.250 L 314.063 81.250 314.063 89.844 L 314.063 98.438 336.133 98.440 C 360.426 98.444,362.262 98.780,364.082 103.567 C 365.522 107.354,365.079 286.817,363.624 288.893 C 360.583 293.236,371.302 292.969,200.000 292.969 C 28.698 292.969,39.417 293.236,36.376 288.893 C 34.921 286.817,34.478 107.354,35.918 103.567 C 37.738 98.780,39.574 98.444,63.867 98.440 L 85.938 98.438 85.938 89.844 L 85.938 81.250 54.309 81.250 L 22.681 81.250 20.130 83.530 M51.563 195.703 L 51.563 276.563 200.000 276.563 L 348.438 276.563 348.438 195.703 L 348.438 114.844 331.286 114.844 L 314.134 114.844 313.903 143.555 L 313.672 172.266 311.500 176.688 C 308.896 181.991,304.483 186.166,298.531 188.957 L 294.141 191.016 200.000 191.016 L 105.859 191.016 101.469 188.957 C 95.517 186.166,91.104 181.991,88.500 176.688 L 86.328 172.266 86.097 143.555 L 85.866 114.844 68.714 114.844 L 51.563 114.844 51.563 195.703 M156.657 209.826 C 162.368 212.536,162.864 220.247,157.537 223.495 C 155.219 224.908,153.252 224.994,123.302 224.997 L 91.526 225.000 89.149 223.000 C 84.591 219.164,85.512 212.068,90.871 209.737 C 94.801 208.028,153.034 208.106,156.657 209.826 M217.842 211.205 C 220.640 213.888,221.305 216.733,219.912 220.065 C 218.082 224.445,215.843 225.000,200.000 225.000 C 182.340 225.000,177.670 222.854,179.446 215.553 C 180.918 209.499,183.739 208.614,200.927 208.814 L 215.526 208.984 217.842 211.205 M308.958 209.704 C 314.480 212.012,315.489 219.097,310.851 223.000 L 308.474 225.000 276.698 224.997 C 246.748 224.994,244.781 224.908,242.463 223.495 C 237.203 220.288,237.629 212.611,243.220 209.854 C 246.750 208.113,304.833 207.981,308.958 209.704 M123.069 243.902 C 127.667 245.997,128.732 252.638,125.060 256.310 L 122.776 258.594 106.896 258.576 C 93.030 258.561,90.804 258.388,89.349 257.209 C 85.143 253.802,84.853 249.365,88.594 245.625 L 91.250 242.969 106.135 242.969 C 116.012 242.969,121.709 243.283,123.069 243.902 M200.695 244.969 C 204.870 248.482,204.588 254.090,200.059 257.592 C 197.872 259.283,150.852 258.932,148.724 257.209 C 144.518 253.802,144.228 249.365,147.969 245.625 L 150.625 242.969 174.471 242.969 L 198.318 242.969 200.695 244.969 M311.406 245.625 C 315.147 249.365,314.857 253.802,310.651 257.209 C 309.120 258.450,305.637 258.560,267.713 258.576 L 226.442 258.594 224.159 256.310 C 222.368 254.519,221.875 253.326,221.875 250.781 C 221.875 248.236,222.368 247.043,224.159 245.252 L 226.442 242.969 267.596 242.969 L 308.750 242.969 311.406 245.625 M0.781 332.504 C 0.781 353.370,16.861 373.060,37.343 377.273 C 43.182 378.474,356.818 378.474,362.657 377.273 C 383.139 373.060,399.219 353.370,399.219 332.504 L 399.219 326.563 326.953 326.563 L 254.688 326.563 254.688 340.273 C 254.687 362.909,259.906 360.938,200.000 360.938 C 140.094 360.938,145.312 362.909,145.312 340.273 L 145.313 326.563 73.047 326.563 L 0.781 326.563 0.781 332.504 M161.719 335.547 L 161.719 344.531 200.000 344.531 L 238.281 344.531 238.281 335.547 L 238.281 326.563 200.000 326.563 L 161.719 326.563 161.719 335.547 M54.934 345.404 C 61.042 348.527,60.851 356.579,54.592 359.815 C 51.650 361.337,47.668 360.239,45.325 357.260 C 40.511 351.140,48.025 341.870,54.934 345.404 M91.205 347.276 C 97.964 355.055,87.691 365.190,80.141 358.193 C 77.308 355.568,76.794 352.615,78.589 349.284 C 81.356 344.150,87.623 343.153,91.205 347.276 "
              stroke="none" fill="#005A64" fill-rule="evenodd"></path>
    </g>
</svg>